<?xml version="1.0" encoding="UTF-8"?>
<svg version="1.1" viewBox="0 0 128 128" xmlns="http://www.w3.org/2000/svg">
	<path d="m63.998 0-63.998 53.678h18.797v64.203l12.014-12.006c1.3945-1.3934 3.6406-1.3934 5.0352 0l.41602.41602 9.2715-9.2676c-5.5339-6.7581-8.8594-15.392-8.8594-24.795 0-21.635 17.584-39.205 39.236-39.205 14.937 0 27.937 8.3654 34.564 20.656h17.525zm11.912 35.977c-20.055 0-36.281 16.213-36.281 36.252-2e-6 20.039 16.226 36.25 36.281 36.25 14.922 0 27.719-8.9762 33.295-21.824v-28.85c-5.576-12.849-18.373-21.828-33.295-21.828zm9.584 15.609h7.1777v7.1777h-5.7383l-20.16 27.707v6.1914h-7.1777v-7.1777h5.4414l20.457-28.115zm2 2v3.1777h3.1777v-3.1777zm-25.898 33.898v3.1777h3.1777v-3.1777zm47.609 5.4648c-6.9342 11.091-19.256 18.482-33.295 18.482-9.3038 0-17.853-3.2516-24.582-8.668l-9.2988 9.293c1.39 1.3938 1.3892 3.6335-.0039 5.0254l-10.926 10.918h78.104z"/>
</svg>
